<svg viewBox="0 0 1140.77 382.39" fill="#181818" xmlns="http://www.w3.org/2000/svg">
    <path d="M233.26 292.72a1 1 0 0 1-1-1V141.8l-69.19 150.34a1 1 0 0 1-.91.58h-35.55a1 1 0 0 1-.91-.58L57.69 143.72v148a1 1 0 0 1-1 1H1a1 1 0 0 1-1-1V13.24a1 1 0 0 1 1-1h53.77a1 1 0 0 1 .91.6l89.53 201.34 89.16-201.34a1 1 0 0 1 .91-.6h53.73a1 1 0 0 1 1 1v278.48a1 1 0 0 1-1 1zm187.23 4c-17.49 0-33.15-4.17-46.54-12.39s-23.9-20.47-31.2-36.38-11-34.86-11-56.51 3.75-40.52 11.16-56.12 17.91-27.81 31.18-36.17 28.86-12.59 46.35-12.59c16.17 0 30.9 4 43.78 12a61.46 61.46 0 0 1 20.7 20.16l3.31-27a1 1 0 0 1 1-.88h57.27a1 1 0 0 1 1 1.12 402.76 402.76 0 0 0-2.37 25.62c-.52 8.62-.79 17.31-.79 26v148.14a1 1 0 0 1-1 1h-59.26a1 1 0 0 1-1-1l-.25-24a59.66 59.66 0 0 1-19.17 17.52c-12.74 7.6-27.26 11.48-43.17 11.48zm18.17-163.53c-13.33 0-24.24 4.74-32.43 14.08s-12.39 24.24-12.39 44.17c0 20.2 4.1 35.2 12.2 44.57s19 14.07 32.62 14.07c13.33 0 24.24-4.73 32.43-14.07s12.39-24.38 12.39-44.57c0-19.93-4.17-34.79-12.39-44.17s-19.11-14.13-32.43-14.13zM727 292.72a1 1 0 0 1-1-1V173.61c0-14.15-2.63-24.29-7.84-30.14s-12.83-8.75-22.76-8.75c-12.82 0-23.28 4.08-31.07 12.14s-11.77 19.05-11.77 32.68v112.18a1 1 0 0 1-1 1h-59.65a1 1 0 0 1-1-1V143.6c0-8.64-.19-17.4-.59-26a237.27 237.27 0 0 0-2.55-25.6 1 1 0 0 1 .98-1.15h57.68a1 1 0 0 1 1 .88l3.21 27.43a72.44 72.44 0 0 1 23.13-21.65c12.35-7.3 26.68-11 42.58-11 23.63 0 41.62 7 53.49 20.68s17.82 35.11 17.82 63.66v120.87a1 1 0 0 1-1 1z"/>
    <rect x="833.05" width="61.65" height="292.72" rx="1"/>
    <path d="M941.09 382.39a1 1 0 0 1-1-.72l-13.83-46.61a1 1 0 0 1 .75-1.26 245.87 245.87 0 0 0 31.08-8.46 59.5 59.5 0 0 0 20.59-12c5.4-5 10-11.74 13.59-20l3.89-9.39L913.27 92.3a1 1 0 0 1 .92-1.4h63.2a1 1 0 0 1 .93.63l49.9 126.83 50.94-126.83a1 1 0 0 1 .93-.63h59.68a1 1 0 0 1 .92 1.4l-90.46 207.72c-6.86 15.3-14.14 28-21.65 37.74a103.35 103.35 0 0 1-24.73 23.53 113.78 113.78 0 0 1-28.89 13.55 236.05 236.05 0 0 1-33.72 7.53z"/>
</svg>